<svg width="164" height="60" viewBox="0 0 164 60" fill="none" xmlns="http://www.w3.org/2000/svg">
<g clip-path="url(#clip0_6_13)">
<path d="M14 31.4999C14 29.843 12.6569 28.4999 11 28.4999C9.34314 28.4999 8 29.843 8 31.4999C8 33.1567 9.34314 34.4999 11 34.4999C12.6569 34.4999 14 33.1567 14 31.4999Z" fill="#FF6900"/>
<path d="M20 20.9999C20 19.343 18.6568 17.9999 17 17.9999C15.3431 17.9999 14 19.343 14 20.9999C14 22.6568 15.3431 23.9999 17 23.9999C18.6568 23.9999 20 22.6568 20 20.9999Z" fill="#FF6900"/>
<path d="M32 17.9999C32 16.343 30.6568 14.9999 29 14.9999C27.3431 14.9999 26 16.343 26 17.9999C26 19.6568 27.3431 20.9999 29 20.9999C30.6568 20.9999 32 19.6568 32 17.9999Z" fill="#FF6900"/>
<path d="M20 34.4999C20 33.515 20.194 32.5397 20.5709 31.6298C20.9478 30.7198 21.5003 29.893 22.1967 29.1966C22.8931 28.5002 23.7199 27.9477 24.6299 27.5708C25.5398 27.1939 26.5151 26.9999 27.5 26.9999H32.75C34.0047 27.0003 35.2177 27.45 36.1694 28.2677C37.1212 29.0853 37.7486 30.2167 37.9381 31.457C38.1276 32.6973 37.8666 33.9645 37.2024 35.029C36.5383 36.0934 35.5148 36.8849 34.3175 37.2599C32.2525 37.8999 30.9 39.2499 30.26 41.3099C29.8852 42.5066 29.0943 43.5296 28.0306 44.1938C26.9669 44.8581 25.7006 45.1196 24.4608 44.9311C23.221 44.7425 22.0896 44.1165 21.2714 43.1661C20.4532 42.2158 20.0022 41.0039 20 39.7499V34.4999Z" fill="#FF6900"/>
<path d="M14 31.4999C14 29.843 12.6569 28.4999 11 28.4999C9.34314 28.4999 8 29.843 8 31.4999C8 33.1567 9.34314 34.4999 11 34.4999C12.6569 34.4999 14 33.1567 14 31.4999Z" stroke="white" stroke-width="2" stroke-linecap="round" stroke-linejoin="round"/>
<path d="M20 20.9999C20 19.343 18.6568 17.9999 17 17.9999C15.3431 17.9999 14 19.343 14 20.9999C14 22.6568 15.3431 23.9999 17 23.9999C18.6568 23.9999 20 22.6568 20 20.9999Z" stroke="white" stroke-width="2" stroke-linecap="round" stroke-linejoin="round"/>
<path d="M32 17.9999C32 16.343 30.6568 14.9999 29 14.9999C27.3431 14.9999 26 16.343 26 17.9999C26 19.6568 27.3431 20.9999 29 20.9999C30.6568 20.9999 32 19.6568 32 17.9999Z" stroke="white" stroke-width="2" stroke-linecap="round" stroke-linejoin="round"/>
<path d="M20 34.4999C20 33.515 20.194 32.5397 20.5709 31.6298C20.9478 30.7198 21.5003 29.893 22.1967 29.1966C22.8931 28.5002 23.7199 27.9477 24.6299 27.5708C25.5398 27.1939 26.5151 26.9999 27.5 26.9999H32.75C34.0047 27.0003 35.2177 27.45 36.1694 28.2677C37.1212 29.0853 37.7486 30.2167 37.9381 31.457C38.1276 32.6973 37.8666 33.9645 37.2024 35.029C36.5383 36.0934 35.5148 36.8849 34.3175 37.2599C32.2525 37.8999 30.9 39.2499 30.26 41.3099C29.8852 42.5066 29.0943 43.5296 28.0306 44.1938C26.9669 44.8581 25.7006 45.1196 24.4608 44.9311C23.221 44.7425 22.0896 44.1165 21.2714 43.1661C20.4532 42.2158 20.0022 41.0039 20 39.7499V34.4999Z" stroke="white" stroke-width="2" stroke-linecap="round" stroke-linejoin="round"/>
</g>
<path d="M69.88 24.96C69.88 26.5867 69.5067 28.08 68.76 29.44C68.0133 30.7733 66.8667 31.8533 65.32 32.68C63.7733 33.5067 61.8533 33.92 59.56 33.92H55.32V44H48.48V15.92H59.56C61.8 15.92 63.6933 16.3067 65.24 17.08C66.7867 17.8533 67.9467 18.92 68.72 20.28C69.4933 21.64 69.88 23.2 69.88 24.96ZM59.04 28.48C60.3467 28.48 61.32 28.1733 61.96 27.56C62.6 26.9467 62.92 26.08 62.92 24.96C62.92 23.84 62.6 22.9733 61.96 22.36C61.32 21.7467 60.3467 21.44 59.04 21.44H55.32V28.48H59.04ZM94.4809 32.48C94.4809 33.12 94.4409 33.7867 94.3609 34.48H78.8809C78.9876 35.8667 79.4276 36.9333 80.2009 37.68C81.0009 38.4 81.9743 38.76 83.1209 38.76C84.8276 38.76 86.0143 38.04 86.6809 36.6H93.9609C93.5876 38.0667 92.9076 39.3867 91.9209 40.56C90.9609 41.7333 89.7476 42.6533 88.2809 43.32C86.8143 43.9867 85.1743 44.32 83.3609 44.32C81.1743 44.32 79.2276 43.8533 77.5209 42.92C75.8143 41.9867 74.4809 40.6533 73.5209 38.92C72.5609 37.1867 72.0809 35.16 72.0809 32.84C72.0809 30.52 72.5476 28.4933 73.4809 26.76C74.4409 25.0267 75.7743 23.6933 77.4809 22.76C79.1876 21.8267 81.1476 21.36 83.3609 21.36C85.5209 21.36 87.4409 21.8133 89.1209 22.72C90.8009 23.6267 92.1076 24.92 93.0409 26.6C94.0009 28.28 94.4809 30.24 94.4809 32.48ZM87.4809 30.68C87.4809 29.5067 87.0809 28.5733 86.2809 27.88C85.4809 27.1867 84.4809 26.84 83.2809 26.84C82.1343 26.84 81.1609 27.1733 80.3609 27.84C79.5876 28.5067 79.1076 29.4533 78.9209 30.68H87.4809ZM110.529 38.2V44H107.049C104.569 44 102.636 43.4 101.249 42.2C99.8627 40.9733 99.1694 38.9867 99.1694 36.24V27.36H96.4494V21.68H99.1694V16.24H106.009V21.68H110.489V27.36H106.009V36.32C106.009 36.9867 106.169 37.4667 106.489 37.76C106.809 38.0533 107.343 38.2 108.089 38.2H110.529Z" fill="white"/>
<path d="M120.739 38.36H130.419V44H113.099V38.56L122.379 27.32H113.179V21.68H130.219V27.12L120.739 38.36ZM132.823 32.8C132.823 30.5067 133.25 28.4933 134.103 26.76C134.983 25.0267 136.17 23.6933 137.663 22.76C139.156 21.8267 140.823 21.36 142.663 21.36C144.236 21.36 145.61 21.68 146.783 22.32C147.983 22.96 148.903 23.8 149.543 24.84V21.68H156.383V44H149.543V40.84C148.876 41.88 147.943 42.72 146.743 43.36C145.57 44 144.196 44.32 142.623 44.32C140.81 44.32 139.156 43.8533 137.663 42.92C136.17 41.96 134.983 40.6133 134.103 38.88C133.25 37.12 132.823 35.0933 132.823 32.8ZM149.543 32.84C149.543 31.1333 149.063 29.7867 148.103 28.8C147.17 27.8133 146.023 27.32 144.663 27.32C143.303 27.32 142.143 27.8133 141.183 28.8C140.25 29.76 139.783 31.0933 139.783 32.8C139.783 34.5067 140.25 35.8667 141.183 36.88C142.143 37.8667 143.303 38.36 144.663 38.36C146.023 38.36 147.17 37.8667 148.103 36.88C149.063 35.8933 149.543 34.5467 149.543 32.84Z" fill="#FF6900"/>
<defs>
<clipPath id="clip0_6_13">
<rect width="36" height="36" fill="white" transform="translate(5 48) rotate(-90)"/>
</clipPath>
</defs>
</svg>
