<svg width="166" height="60" viewBox="0 0 166 60" fill="none" xmlns="http://www.w3.org/2000/svg">
<path d="M23.88 24.96C23.88 26.5867 23.5067 28.08 22.76 29.44C22.0133 30.7733 20.8667 31.8533 19.32 32.68C17.7733 33.5067 15.8533 33.92 13.56 33.92H9.32V44H2.48V15.92H13.56C15.8 15.92 17.6933 16.3067 19.24 17.08C20.7867 17.8533 21.9467 18.92 22.72 20.28C23.4933 21.64 23.88 23.2 23.88 24.96ZM13.04 28.48C14.3467 28.48 15.32 28.1733 15.96 27.56C16.6 26.9467 16.92 26.08 16.92 24.96C16.92 23.84 16.6 22.9733 15.96 22.36C15.32 21.7467 14.3467 21.44 13.04 21.44H9.32V28.48H13.04ZM48.4809 32.48C48.4809 33.12 48.4409 33.7867 48.3609 34.48H32.8809C32.9876 35.8667 33.4276 36.9333 34.2009 37.68C35.0009 38.4 35.9743 38.76 37.1209 38.76C38.8276 38.76 40.0143 38.04 40.6809 36.6H47.9609C47.5876 38.0667 46.9076 39.3867 45.9209 40.56C44.9609 41.7333 43.7476 42.6533 42.2809 43.32C40.8143 43.9867 39.1743 44.32 37.3609 44.32C35.1743 44.32 33.2276 43.8533 31.5209 42.92C29.8143 41.9867 28.4809 40.6533 27.5209 38.92C26.5609 37.1867 26.0809 35.16 26.0809 32.84C26.0809 30.52 26.5476 28.4933 27.4809 26.76C28.4409 25.0267 29.7743 23.6933 31.4809 22.76C33.1876 21.8267 35.1476 21.36 37.3609 21.36C39.5209 21.36 41.4409 21.8133 43.1209 22.72C44.8009 23.6267 46.1076 24.92 47.0409 26.6C48.0009 28.28 48.4809 30.24 48.4809 32.48ZM41.4809 30.68C41.4809 29.5067 41.0809 28.5733 40.2809 27.88C39.4809 27.1867 38.4809 26.84 37.2809 26.84C36.1343 26.84 35.1609 27.1733 34.3609 27.84C33.5876 28.5067 33.1076 29.4533 32.9209 30.68H41.4809ZM64.5294 38.2V44H61.0494C58.5694 44 56.636 43.4 55.2494 42.2C53.8627 40.9733 53.1694 38.9867 53.1694 36.24V27.36H50.4494V21.68H53.1694V16.24H60.0094V21.68H64.4894V27.36H60.0094V36.32C60.0094 36.9867 60.1694 37.4667 60.4894 37.76C60.8094 38.0533 61.3427 38.2 62.0894 38.2H64.5294Z" fill="white"/>
<path d="M67.1794 29.92C67.1794 27.1467 67.7794 24.68 68.9794 22.52C70.1794 20.3333 71.846 18.64 73.9794 17.44C76.1394 16.2133 78.5794 15.6 81.2994 15.6C84.6327 15.6 87.486 16.48 89.8594 18.24C92.2327 20 93.8194 22.4 94.6194 25.44H87.0994C86.5394 24.2667 85.7394 23.3733 84.6994 22.76C83.686 22.1467 82.526 21.84 81.2194 21.84C79.1127 21.84 77.406 22.5733 76.0994 24.04C74.7927 25.5067 74.1394 27.4667 74.1394 29.92C74.1394 32.3733 74.7927 34.3333 76.0994 35.8C77.406 37.2667 79.1127 38 81.2194 38C82.526 38 83.686 37.6933 84.6994 37.08C85.7394 36.4667 86.5394 35.5733 87.0994 34.4H94.6194C93.8194 37.44 92.2327 39.84 89.8594 41.6C87.486 43.3333 84.6327 44.2 81.2994 44.2C78.5794 44.2 76.1394 43.6 73.9794 42.4C71.846 41.1733 70.1794 39.48 68.9794 37.32C67.7794 35.16 67.1794 32.6933 67.1794 29.92ZM97.4481 32.8C97.4481 30.5067 97.8748 28.4933 98.7281 26.76C99.6081 25.0267 100.795 23.6933 102.288 22.76C103.781 21.8267 105.448 21.36 107.288 21.36C108.861 21.36 110.235 21.68 111.408 22.32C112.608 22.96 113.528 23.8 114.168 24.84V21.68H121.008V44H114.168V40.84C113.501 41.88 112.568 42.72 111.368 43.36C110.195 44 108.821 44.32 107.248 44.32C105.435 44.32 103.781 43.8533 102.288 42.92C100.795 41.96 99.6081 40.6133 98.7281 38.88C97.8748 37.12 97.4481 35.0933 97.4481 32.8ZM114.168 32.84C114.168 31.1333 113.688 29.7867 112.728 28.8C111.795 27.8133 110.648 27.32 109.288 27.32C107.928 27.32 106.768 27.8133 105.808 28.8C104.875 29.76 104.408 31.0933 104.408 32.8C104.408 34.5067 104.875 35.8667 105.808 36.88C106.768 37.8667 107.928 38.36 109.288 38.36C110.648 38.36 111.795 37.8667 112.728 36.88C113.688 35.8933 114.168 34.5467 114.168 32.84ZM132.797 25.4C133.597 24.1733 134.597 23.2133 135.797 22.52C136.997 21.8 138.33 21.44 139.797 21.44V28.68H137.917C136.21 28.68 134.93 29.0533 134.077 29.8C133.223 30.52 132.797 31.8 132.797 33.64V44H125.957V21.68H132.797V25.4ZM164.106 32.48C164.106 33.12 164.066 33.7867 163.986 34.48H148.506C148.613 35.8667 149.053 36.9333 149.826 37.68C150.626 38.4 151.599 38.76 152.746 38.76C154.453 38.76 155.639 38.04 156.306 36.6H163.586C163.213 38.0667 162.533 39.3867 161.546 40.56C160.586 41.7333 159.373 42.6533 157.906 43.32C156.439 43.9867 154.799 44.32 152.986 44.32C150.799 44.32 148.853 43.8533 147.146 42.92C145.439 41.9867 144.106 40.6533 143.146 38.92C142.186 37.1867 141.706 35.16 141.706 32.84C141.706 30.52 142.173 28.4933 143.106 26.76C144.066 25.0267 145.399 23.6933 147.106 22.76C148.813 21.8267 150.773 21.36 152.986 21.36C155.146 21.36 157.066 21.8133 158.746 22.72C160.426 23.6267 161.733 24.92 162.666 26.6C163.626 28.28 164.106 30.24 164.106 32.48ZM157.106 30.68C157.106 29.5067 156.706 28.5733 155.906 27.88C155.106 27.1867 154.106 26.84 152.906 26.84C151.759 26.84 150.786 27.1733 149.986 27.84C149.213 28.5067 148.733 29.4533 148.546 30.68H157.106Z" fill="#FF6900"/>
</svg>
